<svg xmlns="http://www.w3.org/2000/svg" width="900" height="1600" viewBox="0 0 900 1600" role="img" aria-label="Paris Seine">
  <defs>
    <linearGradient id="bg" x1="0" y1="0" x2="1" y2="1">
      <stop offset="0" stop-color="#E8B4B8"/>
      <stop offset="0.58" stop-color="#E28743"/>
      <stop offset="1" stop-color="#F2E58A"/>
    </linearGradient>
    <filter id="shadow" x="-20%" y="-20%" width="140%" height="140%">
      <feDropShadow dx="0" dy="16" stdDeviation="18" flood-color="#002855" flood-opacity="0.22"/>
    </filter>
  </defs>
  <rect width="900" height="1600" fill="url(#bg)"/>
  <circle cx="738" cy="224" r="108" fill="#F2E58A" opacity="0.85"/>
  <circle cx="135" cy="320" r="162" fill="#FFFFFF" opacity="0.16"/>
  <circle cx="828" cy="1152" r="225" fill="#FFFFFF" opacity="0.14"/>
  <path d="M0 1152 C 198 960, 396 1344, 612 1120 C 747 976, 828 1056, 900 928 L 900 1600 L 0 1600 Z" fill="#002855" opacity="0.20"/>
  <path d="M0 1312 C 252 1120, 504 1472, 900 1248 L 900 1600 L 0 1600 Z" fill="#002855" opacity="0.30"/>
  <g filter="url(#shadow)">
    <rect x="72" y="160" width="756" height="416" rx="28" fill="#FFFFFF" opacity="0.82"/>
    <text x="135" y="328" font-size="68" font-family="Noto Sans KR, Noto Sans JP, Outfit, sans-serif">🌅</text>
    <text x="252" y="304" font-size="39" font-weight="800" fill="#002855" font-family="Noto Sans KR, Noto Sans JP, Outfit, sans-serif">Paris Seine</text>
    <text x="252" y="424" font-size="25" font-weight="600" fill="#4F626C" font-family="Noto Sans KR, Noto Sans JP, Outfit, sans-serif">Sunset Live</text>
  </g>
  <text x="72" y="1504" font-size="29" font-weight="800" fill="#FFFFFF" opacity="0.92" font-family="Outfit, sans-serif">Travelog</text>
</svg>
