<svg xmlns="http://www.w3.org/2000/svg" width="1200" height="900" viewBox="0 0 512 512"><defs><linearGradient id="hero" x1="0" y1="0" x2="1" y2="1"><stop offset="0" stop-color="#E4F3FB"/><stop offset="1" stop-color="#7FB0C9"/></linearGradient><linearGradient id="sky" x1="0" y1="0" x2="0" y2="1"><stop offset="0" stop-color="#182743"/><stop offset="1" stop-color="#355A8B"/></linearGradient></defs><rect width="512" height="512" fill="url(#hero)"/><rect width="512" height="512" fill="#DDF2FB"/>
<path d="M0 286 L110 168 L194 280 L270 140 L364 286 L440 182 L512 286 V512 H0 Z" fill="#7FAF8B"/>
<path d="M0 310 L94 200 L180 310 L270 164 L356 310 L430 218 L512 310 V512 H0 Z" fill="#547C62"/>
<path d="M0 404 C128 372 260 424 512 396 V512 H0 Z" fill="#78B7D3"/>
<circle cx="396" cy="96" r="38" fill="#FFF0A8"/><rect x="40" y="36" width="126" height="34" rx="17" fill="rgba(255,255,255,0.88)"/><text x="103" y="58" text-anchor="middle" font-size="18" fill="#2B3A42" font-family="Arial, sans-serif" font-weight="bold">BACKPACK</text><rect x="40" y="420" width="432" height="62" rx="28" fill="rgba(255,255,255,0.92)"/><text x="64" y="447" font-size="26" fill="#002855" font-family="Arial, sans-serif" font-weight="bold">Interlaken Backpacking</text><text x="64" y="470" font-size="16" fill="#4F626C" font-family="Arial, sans-serif">Lakeside trails and mountain views on a budget</text></svg>