<svg xmlns="http://www.w3.org/2000/svg" width="1200" height="900" viewBox="0 0 512 512"><defs><linearGradient id="hero" x1="0" y1="0" x2="1" y2="1"><stop offset="0" stop-color="#F6EFE2"/><stop offset="1" stop-color="#D69C45"/></linearGradient><linearGradient id="sky" x1="0" y1="0" x2="0" y2="1"><stop offset="0" stop-color="#182743"/><stop offset="1" stop-color="#355A8B"/></linearGradient></defs><rect width="512" height="512" fill="url(#hero)"/><rect width="512" height="512" fill="#F4ECE0"/>
<rect x="60" y="112" width="392" height="236" rx="28" fill="#FFFFFF"/>
<circle cx="174" cy="230" r="74" fill="#F4B24C"/><path d="M138 224c30-46 102-18 78 36-24 50-108 32-78-36z" fill="#E5653A"/>
<circle cx="340" cy="196" r="42" fill="#A6D06E"/><circle cx="338" cy="278" r="38" fill="#70A2B7"/>
<path d="M0 396 C140 350, 280 436, 512 388 V512 H0 Z" fill="#E9D7B6"/><rect x="40" y="36" width="126" height="34" rx="17" fill="rgba(255,255,255,0.88)"/><text x="103" y="58" text-anchor="middle" font-size="18" fill="#2B3A42" font-family="Arial, sans-serif" font-weight="bold">ITINERARY</text><rect x="40" y="420" width="432" height="62" rx="28" fill="rgba(255,255,255,0.92)"/><text x="64" y="447" font-size="26" fill="#002855" font-family="Arial, sans-serif" font-weight="bold">Seoul History & Food Itinerary</text><text x="64" y="470" font-size="16" fill="#4F626C" font-family="Arial, sans-serif">Palaces, tea houses and market snacks in 3 days</text></svg>