<svg xmlns="http://www.w3.org/2000/svg" width="1200" height="900" viewBox="0 0 512 512"><defs><linearGradient id="hero" x1="0" y1="0" x2="1" y2="1"><stop offset="0" stop-color="#EEF8EF"/><stop offset="1" stop-color="#8BB57F"/></linearGradient><linearGradient id="sky" x1="0" y1="0" x2="0" y2="1"><stop offset="0" stop-color="#182743"/><stop offset="1" stop-color="#355A8B"/></linearGradient></defs><rect width="512" height="512" fill="url(#hero)"/><rect width="512" height="512" fill="#EDF7EE"/>
<rect x="84" y="120" width="344" height="240" rx="26" fill="#D6E9D0"/>
<g stroke="#6FA06F" stroke-width="8" stroke-linecap="round"><line x1="140" y1="130" x2="120" y2="348"/><line x1="176" y1="130" x2="156" y2="348"/><line x1="212" y1="130" x2="192" y2="348"/><line x1="248" y1="130" x2="228" y2="348"/><line x1="284" y1="130" x2="264" y2="348"/><line x1="320" y1="130" x2="300" y2="348"/><line x1="356" y1="130" x2="336" y2="348"/></g>
<path d="M62 376 C180 314, 308 420, 512 374 V512 H0 Z" fill="#C6DFC0"/>
<circle cx="392" cy="124" r="38" fill="#FFE5F3"/><rect x="40" y="36" width="126" height="34" rx="17" fill="rgba(255,255,255,0.88)"/><text x="103" y="58" text-anchor="middle" font-size="18" fill="#2B3A42" font-family="Arial, sans-serif" font-weight="bold">HEALING</text><rect x="40" y="420" width="432" height="62" rx="28" fill="rgba(255,255,255,0.92)"/><text x="64" y="447" font-size="26" fill="#002855" font-family="Arial, sans-serif" font-weight="bold">Kyoto Temple Walk</text><text x="64" y="470" font-size="16" fill="#4F626C" font-family="Arial, sans-serif">A healing morning path through bamboo and temples</text></svg>