<svg xmlns="http://www.w3.org/2000/svg" width="1200" height="900" viewBox="0 0 512 512"><defs><linearGradient id="hero" x1="0" y1="0" x2="1" y2="1"><stop offset="0" stop-color="#E2F3F8"/><stop offset="1" stop-color="#7ABAD4"/></linearGradient><linearGradient id="sky" x1="0" y1="0" x2="0" y2="1"><stop offset="0" stop-color="#182743"/><stop offset="1" stop-color="#355A8B"/></linearGradient></defs><rect width="512" height="512" fill="url(#hero)"/><rect width="512" height="512" fill="#D7EDF6"/>
<circle cx="120" cy="108" r="34" fill="#FFD79A"/>
<path d="M256 84 L282 164 L270 164 L290 252 L275 252 L300 348 L212 348 L238 252 L222 252 L242 164 L230 164 Z" fill="#5D5B8C"/>
<path d="M0 340 C112 304, 212 356, 512 326 V512 H0 Z" fill="#7DB8D0"/>
<path d="M0 378 C134 354, 238 404, 512 382 V512 H0 Z" fill="#5495B0"/>
<rect x="70" y="346" width="34" height="100" rx="17" fill="#2B3A42"/><rect x="408" y="336" width="34" height="110" rx="17" fill="#2B3A42"/>
<circle cx="88" cy="330" r="22" fill="#2B3A42"/><circle cx="426" cy="322" r="22" fill="#2B3A42"/><rect x="40" y="36" width="126" height="34" rx="17" fill="rgba(255,255,255,0.88)"/><text x="103" y="58" text-anchor="middle" font-size="18" fill="#2B3A42" font-family="Arial, sans-serif" font-weight="bold">PARIS</text><rect x="40" y="420" width="432" height="62" rx="28" fill="rgba(255,255,255,0.92)"/><text x="64" y="447" font-size="26" fill="#002855" font-family="Arial, sans-serif" font-weight="bold">Sunset over the Seine</text><text x="64" y="470" font-size="16" fill="#4F626C" font-family="Arial, sans-serif">Golden hour by the river in Paris</text></svg>