<svg xmlns="http://www.w3.org/2000/svg" width="1200" height="900" viewBox="0 0 512 512"><defs><linearGradient id="hero" x1="0" y1="0" x2="1" y2="1"><stop offset="0" stop-color="#FFF3E2"/><stop offset="1" stop-color="#E28743"/></linearGradient><linearGradient id="sky" x1="0" y1="0" x2="0" y2="1"><stop offset="0" stop-color="#182743"/><stop offset="1" stop-color="#355A8B"/></linearGradient></defs><rect width="512" height="512" fill="url(#hero)"/><rect x="70" y="290" width="372" height="110" rx="18" fill="#F8F5EF"/>
<polygon points="92,282 230,210 372,282" fill="#3E3A37"/>
<rect x="120" y="308" width="86" height="58" fill="#D5C0A1"/>
<rect x="214" y="308" width="86" height="58" fill="#EBD9BE"/>
<rect x="308" y="308" width="86" height="58" fill="#D5C0A1"/>
<circle cx="386" cy="152" r="34" fill="#FFE9A6" opacity="0.9"/>
<path d="M0 350 C120 320, 240 380, 512 340 V512 H0 Z" fill="#4A7F4D" opacity="0.18"/><rect x="40" y="36" width="126" height="34" rx="17" fill="rgba(255,255,255,0.88)"/><text x="103" y="58" text-anchor="middle" font-size="18" fill="#2B3A42" font-family="Arial, sans-serif" font-weight="bold">SEOUL</text><rect x="40" y="420" width="432" height="62" rx="28" fill="rgba(255,255,255,0.92)"/><text x="64" y="447" font-size="26" fill="#002855" font-family="Arial, sans-serif" font-weight="bold">Secret Hanok Tea Cafe</text><text x="64" y="470" font-size="16" fill="#4F626C" font-family="Arial, sans-serif">Warm tea and a quiet courtyard in Seochon</text></svg>