<svg xmlns="http://www.w3.org/2000/svg" width="1200" height="900" viewBox="0 0 512 512"><defs><linearGradient id="hero" x1="0" y1="0" x2="1" y2="1"><stop offset="0" stop-color="#182743"/><stop offset="1" stop-color="#1B3C64"/></linearGradient><linearGradient id="sky" x1="0" y1="0" x2="0" y2="1"><stop offset="0" stop-color="#182743"/><stop offset="1" stop-color="#355A8B"/></linearGradient></defs><rect width="512" height="512" fill="url(#hero)"/><rect width="512" height="512" fill="url(#sky)"/>
<rect x="86" y="160" width="72" height="220" fill="#243A67"/><rect x="170" y="110" width="96" height="270" fill="#344F88"/>
<rect x="282" y="140" width="58" height="240" fill="#203A5D"/><rect x="350" y="92" width="78" height="288" fill="#2A4E75"/>
<rect x="104" y="196" width="36" height="14" fill="#FF77B7"/><rect x="188" y="150" width="58" height="16" fill="#6CFFD8"/>
<rect x="188" y="192" width="58" height="16" fill="#FFD166"/><rect x="364" y="144" width="46" height="14" fill="#FF77B7"/>
<rect x="300" y="174" width="24" height="140" fill="#FFDE9E" opacity="0.4"/>
<path d="M0 420 C140 394, 260 444, 512 400 V512 H0 Z" fill="#1B2238"/><rect x="40" y="36" width="126" height="34" rx="17" fill="rgba(255,255,255,0.88)"/><text x="103" y="58" text-anchor="middle" font-size="18" fill="#2B3A42" font-family="Arial, sans-serif" font-weight="bold">TOKYO</text><rect x="40" y="420" width="432" height="62" rx="28" fill="rgba(255,255,255,0.92)"/><text x="64" y="447" font-size="26" fill="#002855" font-family="Arial, sans-serif" font-weight="bold">Midnight Shibuya Crossing</text><text x="64" y="470" font-size="16" fill="#4F626C" font-family="Arial, sans-serif">Neon alleys and ramen shops after dark</text></svg>