<svg xmlns="http://www.w3.org/2000/svg" width="512" height="512" viewBox="0 0 512 512">
<defs><linearGradient id="g" x1="0" y1="0" x2="1" y2="1"><stop offset="0" stop-color="#4A7F4D"/><stop offset="1" stop-color="#A8DFEC"/></linearGradient></defs>
<rect width="512" height="512" rx="96" fill="url(#g)"/>
<circle cx="256" cy="184" r="76" fill="#FFE5CC"/>
<path d="M180 182c4-40 29-70 76-70 39 0 70 18 76 70-14-12-26-18-44-20-15 10-38 16-68 18-14 1-28 2-40 2z" fill="#406E52"/>
<circle cx="228" cy="186" r="7" fill="#2B3A42"/><circle cx="284" cy="186" r="7" fill="#2B3A42"/>
<path d="M228 220c18 16 38 16 56 0" fill="none" stroke="#C26752" stroke-width="6" stroke-linecap="round"/>
<path d="M146 368c18-62 66-100 110-100s92 38 110 100" fill="#FFFFFF" opacity="0.96"/>
<rect x="92" y="64" width="132" height="42" rx="21" fill="rgba(255,255,255,0.85)"/>
<text x="158" y="91" text-anchor="middle" font-size="22" fill="#2B3A42" font-family="Arial, sans-serif">Creator</text>
<text x="256" y="446" text-anchor="middle" font-size="34" fill="white" font-family="Arial, sans-serif" font-weight="bold">Chloe</text>
<text x="256" y="404" text-anchor="middle" font-size="34" fill="white" opacity="0.9" font-family="Arial, sans-serif">PARIS</text>
</svg>