<svg xmlns="http://www.w3.org/2000/svg" width="1200" height="900" viewBox="0 0 512 512"><defs><linearGradient id="hero" x1="0" y1="0" x2="1" y2="1"><stop offset="0" stop-color="#E7F3F7"/><stop offset="1" stop-color="#70A2B7"/></linearGradient><linearGradient id="sky" x1="0" y1="0" x2="0" y2="1"><stop offset="0" stop-color="#182743"/><stop offset="1" stop-color="#355A8B"/></linearGradient></defs><rect width="512" height="512" fill="url(#hero)"/><rect width="512" height="512" fill="#D6E9F3"/>
<rect x="82" y="74" width="348" height="364" rx="30" fill="#FFFFFF"/>
<rect x="112" y="104" width="288" height="184" rx="24" fill="#264A73"/>
<circle cx="344" cy="146" r="28" fill="#FFD98E"/>
<rect x="130" y="220" width="252" height="12" rx="6" fill="#F3A34B"/>
<rect x="130" y="250" width="196" height="12" rx="6" fill="#6AB6D2"/>
<circle cx="192" cy="170" r="42" fill="#8FD58B"/><path d="M174 158c12-12 32-12 44 0 12 12 12 32 0 44" fill="none" stroke="#FFFFFF" stroke-width="8" stroke-linecap="round"/>
<path d="M172 214c18-18 52-18 70 0" fill="none" stroke="#FFFFFF" stroke-width="8" stroke-linecap="round"/>
<rect x="130" y="324" width="252" height="14" rx="7" fill="#CBDDE8"/><rect x="130" y="350" width="228" height="14" rx="7" fill="#D6E5D4"/><rect x="130" y="376" width="184" height="14" rx="7" fill="#EBD8D9"/>
<rect x="40" y="36" width="126" height="34" rx="17" fill="rgba(255,255,255,0.88)"/><text x="103" y="58" text-anchor="middle" font-size="18" fill="#2B3A42" font-family="Arial, sans-serif" font-weight="bold">VIDEO</text><rect x="40" y="420" width="432" height="62" rx="28" fill="rgba(255,255,255,0.92)"/><text x="64" y="447" font-size="26" fill="#002855" font-family="Arial, sans-serif" font-weight="bold">Travelog Guide Video</text><text x="64" y="470" font-size="16" fill="#4F626C" font-family="Arial, sans-serif">Minho introduces the Gyeongbokgung walk</text></svg>